<svg xmlns="http://www.w3.org/2000/svg" width="1280" height="720" viewBox="0 0 1280 720"><defs><linearGradient id="g" x1="0" x2="1"><stop stop-color="#111827"/><stop offset="1" stop-color="#312e81"/></linearGradient></defs><rect width="1280" height="720" fill="url(#g)"/><circle cx="1050" cy="120" r="180" fill="#38bdf8" opacity="0.13"/><circle cx="220" cy="620" r="220" fill="#a78bfa" opacity="0.12"/><text x="70" y="112" fill="#f8fafc" font-size="52" font-weight="900">古诗词赏析入门</text><text x="70" y="168" fill="#bae6fd" font-size="28">怎样用文本证据解释古诗词赏析入门中的表达效果与思想情感？</text><text x="70" y="225" fill="#cbd5e1" font-size="24">角色任务：诗歌意象分析师 · 课标节点：chn-m-poetry-appreciation</text><rect x="70" y="270" width="330" height="190" rx="24" fill="#0f172a" stroke="#38bdf8" stroke-width="4"/><text x="96" y="325" fill="#38bdf8" font-size="28" font-weight="800">意象</text><text x="96" y="374" fill="#dbeafe" font-size="21">学习古诗词赏析入门时，先明确任务对象和文本范围，不能只凭印象</text><text x="96" y="410" fill="#dbeafe" font-size="21">回答。</text><rect x="460" y="270" width="330" height="190" rx="24" fill="#0f172a" stroke="#a78bfa" stroke-width="4"/><text x="486" y="325" fill="#a78bfa" font-size="28" font-weight="800">情感</text><text x="486" y="374" fill="#dbeafe" font-size="21">把古诗词赏析入门拆成可标注的语言现象、结构关系和表达方法。</text><text x="486" y="410" fill="#dbeafe" font-size="21"></text><rect x="850" y="270" width="330" height="190" rx="24" fill="#0f172a" stroke="#22c55e" stroke-width="4"/><text x="876" y="325" fill="#22c55e" font-size="28" font-weight="800">手法</text><text x="876" y="374" fill="#dbeafe" font-size="21">用原文词句、段落关系或写作目的支撑判断，形成可复用的答题路径</text><text x="876" y="410" fill="#dbeafe" font-size="21">。</text><rect x="70" y="525" width="1140" height="105" rx="24" fill="#020617" opacity="0.72" stroke="#334155"/><text x="105" y="585" fill="#fbbf24" font-size="30" font-weight="800">记忆锚点</text><text x="260" y="585" fill="#e0f2fe" font-size="26">古诗词赏析抓意象、情感和表达手法。</text><text x="70" y="675" fill="#64748b" font-size="18">TeachAny v7.14 · 初中语文完整模式 · AI 学伴 / TTS / 知识图谱 / 文本批注互动 / 课标挂树</text></svg>