<svg xmlns="http://www.w3.org/2000/svg" width="1200" height="680" viewBox="0 0 1200 680" role="img" aria-label="从感动细节到艺术探究">
  <defs>
    <radialGradient id="bg" cx="20%" cy="10%" r="95%">
      <stop offset="0" stop-color="#5a1725"/>
      <stop offset="0.45" stop-color="#211014"/>
      <stop offset="1" stop-color="#080506"/>
    </radialGradient>
    <linearGradient id="gold" x1="0" y1="0" x2="1" y2="1">
      <stop offset="0" stop-color="#f8e7a0"/>
      <stop offset="0.52" stop-color="#c9a227"/>
      <stop offset="1" stop-color="#8b6b12"/>
    </linearGradient>
    <linearGradient id="silk" x1="0" y1="0" x2="1" y2="0">
      <stop offset="0" stop-color="#b91c3c" stop-opacity="0.15"/>
      <stop offset="0.5" stop-color="#f472b6" stop-opacity="0.26"/>
      <stop offset="1" stop-color="#f59e0b" stop-opacity="0.10"/>
    </linearGradient>
    <filter id="soft" x="-20%" y="-20%" width="140%" height="140%">
      <feGaussianBlur stdDeviation="8" result="blur"/>
      <feColorMatrix in="blur" type="matrix" values="1 0 0 0 0  0 0.72 0 0 0  0 0 0.45 0 0  0 0 0 0.55 0"/>
      <feBlend in="SourceGraphic" mode="screen"/>
    </filter>
    <pattern id="paper" width="60" height="60" patternUnits="userSpaceOnUse">
      <path d="M0 59.5H60M59.5 0V60" stroke="#f8e7a0" stroke-opacity="0.055"/>
      <circle cx="12" cy="18" r="1" fill="#fff7d6" fill-opacity="0.08"/>
      <circle cx="44" cy="42" r="1.2" fill="#fff7d6" fill-opacity="0.06"/>
    </pattern>
  </defs>
  <rect width="1200" height="680" fill="url(#bg)"/>
  <rect width="1200" height="680" fill="url(#paper)"/>
  <path d="M0 510 C180 430 300 610 500 520 C760 400 885 615 1200 500 L1200 680 L0 680 Z" fill="url(#silk)"/>
  <circle cx="1050" cy="108" r="116" fill="#c9a227" opacity="0.10" filter="url(#soft)"/>
  <circle cx="164" cy="582" r="122" fill="#b91c3c" opacity="0.12" filter="url(#soft)"/>
  <rect x="44" y="42" width="1112" height="596" rx="34" fill="#12080b" fill-opacity="0.62" stroke="url(#gold)" stroke-opacity="0.65" stroke-width="2"/>
  
  <g transform="translate(675 132)">
    <rect x="0" y="0" width="378" height="410" rx="24" fill="#1d0d12" stroke="url(#gold)" stroke-opacity="0.72"/>
    <path d="M42 66 C100 18 184 40 244 82 C286 111 327 104 350 82" fill="none" stroke="#f8e7a0" stroke-width="3" opacity="0.7"/>
    <path d="M72 330 C168 264 250 264 330 330" fill="none" stroke="#f472b6" stroke-width="2" opacity="0.7"/>
    <g fill="#f8e7a0" opacity="0.9" font-family="Songti SC, serif">
      <text x="56" y="146" font-size="30">通读</text><text x="192" y="146" font-size="30">精读</text>
      <text x="56" y="236" font-size="30">研读</text><text x="192" y="236" font-size="30">研讨</text>
    </g>
    <g stroke="url(#gold)" stroke-width="2" fill="none" opacity="0.72">
      <path d="M126 134 C160 126 174 126 204 134"/><path d="M126 224 C160 216 174 216 204 224"/>
      <path d="M107 158 C92 184 92 202 108 222"/><path d="M250 158 C268 184 268 202 250 222"/>
    </g>
    <g opacity="0.72">
      <circle cx="189" cy="78" r="8" fill="#f472b6"/><circle cx="236" cy="310" r="9" fill="#f472b6"/>
      <circle cx="118" cy="294" r="5" fill="#f8e7a0"/><circle cx="296" cy="191" r="5" fill="#f8e7a0"/>
    </g>
  </g>

  <g font-family="PingFang SC, Source Han Serif SC, Songti SC, serif">
    <text x="88" y="112" font-size="28" fill="#f8e7a0" letter-spacing="6">红楼梦整本书阅读</text>
    <text x="88" y="172" font-size="54" font-weight="700" fill="#fff7d6">从感动细节到艺术探究</text>
    <text x="92" y="222" font-size="24" fill="#d6d3d1">一张图走完：通读、精读、研读、研讨</text>
    <rect x="88" y="258" width="520" height="2" fill="url(#gold)" opacity="0.75"/>
    <text x="92" y="310" font-size="26" fill="#fde68a">最好的入口，不是梗概，是一句让你停下来的原文。</text>
  </g>
</svg>