<svg xmlns="http://www.w3.org/2000/svg" width="1200" height="680" viewBox="0 0 1200 680" role="img" aria-label="黛玉葬花">
  <defs>
    <radialGradient id="bg" cx="20%" cy="10%" r="95%">
      <stop offset="0" stop-color="#5a1725"/>
      <stop offset="0.45" stop-color="#211014"/>
      <stop offset="1" stop-color="#080506"/>
    </radialGradient>
    <linearGradient id="gold" x1="0" y1="0" x2="1" y2="1">
      <stop offset="0" stop-color="#f8e7a0"/>
      <stop offset="0.52" stop-color="#c9a227"/>
      <stop offset="1" stop-color="#8b6b12"/>
    </linearGradient>
    <linearGradient id="silk" x1="0" y1="0" x2="1" y2="0">
      <stop offset="0" stop-color="#b91c3c" stop-opacity="0.15"/>
      <stop offset="0.5" stop-color="#f472b6" stop-opacity="0.26"/>
      <stop offset="1" stop-color="#f59e0b" stop-opacity="0.10"/>
    </linearGradient>
    <filter id="soft" x="-20%" y="-20%" width="140%" height="140%">
      <feGaussianBlur stdDeviation="8" result="blur"/>
      <feColorMatrix in="blur" type="matrix" values="1 0 0 0 0  0 0.72 0 0 0  0 0 0.45 0 0  0 0 0 0.55 0"/>
      <feBlend in="SourceGraphic" mode="screen"/>
    </filter>
    <pattern id="paper" width="60" height="60" patternUnits="userSpaceOnUse">
      <path d="M0 59.5H60M59.5 0V60" stroke="#f8e7a0" stroke-opacity="0.055"/>
      <circle cx="12" cy="18" r="1" fill="#fff7d6" fill-opacity="0.08"/>
      <circle cx="44" cy="42" r="1.2" fill="#fff7d6" fill-opacity="0.06"/>
    </pattern>
  </defs>
  <rect width="1200" height="680" fill="url(#bg)"/>
  <rect width="1200" height="680" fill="url(#paper)"/>
  <path d="M0 510 C180 430 300 610 500 520 C760 400 885 615 1200 500 L1200 680 L0 680 Z" fill="url(#silk)"/>
  <circle cx="1050" cy="108" r="116" fill="#c9a227" opacity="0.10" filter="url(#soft)"/>
  <circle cx="164" cy="582" r="122" fill="#b91c3c" opacity="0.12" filter="url(#soft)"/>
  <rect x="44" y="42" width="1112" height="596" rx="34" fill="#12080b" fill-opacity="0.62" stroke="url(#gold)" stroke-opacity="0.65" stroke-width="2"/>
  
  <g transform="translate(660 118)">
    <path d="M120 0 C86 116 86 248 148 412" stroke="#8b5cf6" stroke-width="18" fill="none" opacity="0.42"/>
    <path d="M80 370 C160 304 242 304 340 360" fill="none" stroke="#f8e7a0" stroke-width="4" opacity="0.7"/>
    <ellipse cx="188" cy="398" rx="134" ry="28" fill="#111827" opacity="0.55"/>
    <path d="M198 132 C236 150 262 196 250 244 C238 304 170 302 154 248 C140 202 158 154 198 132Z" fill="#1f1020" stroke="#f8e7a0"/>
    <path d="M188 166 C150 224 148 322 196 364 C236 312 246 224 188 166Z" fill="#831843" opacity="0.72"/>
    <path d="M120 388 l68 -82" stroke="#c9a227" stroke-width="5"/>
    <g fill="#f9a8d4"> <circle cx="94" cy="98" r="9"/><circle cx="330" cy="116" r="7"/><circle cx="282" cy="250" r="8"/><circle cx="116" cy="236" r="6"/><circle cx="354" cy="340" r="9"/></g>
  </g>

  <g font-family="PingFang SC, Source Han Serif SC, Songti SC, serif">
    <text x="88" y="112" font-size="28" fill="#f8e7a0" letter-spacing="6">红楼梦整本书阅读</text>
    <text x="88" y="172" font-size="54" font-weight="700" fill="#fff7d6">黛玉葬花</text>
    <text x="92" y="222" font-size="24" fill="#d6d3d1">第27回 · 诗词意象</text>
    <rect x="88" y="258" width="520" height="2" fill="url(#gold)" opacity="0.75"/>
    <text x="92" y="310" font-size="26" fill="#fde68a">花谢花飞飞满天</text>
  </g>
</svg>