<svg xmlns="http://www.w3.org/2000/svg" width="1200" height="680" viewBox="0 0 1200 680" role="img" aria-label="晴雯撕扇">
  <defs>
    <radialGradient id="bg" cx="20%" cy="10%" r="95%">
      <stop offset="0" stop-color="#5a1725"/>
      <stop offset="0.45" stop-color="#211014"/>
      <stop offset="1" stop-color="#080506"/>
    </radialGradient>
    <linearGradient id="gold" x1="0" y1="0" x2="1" y2="1">
      <stop offset="0" stop-color="#f8e7a0"/>
      <stop offset="0.52" stop-color="#c9a227"/>
      <stop offset="1" stop-color="#8b6b12"/>
    </linearGradient>
    <linearGradient id="silk" x1="0" y1="0" x2="1" y2="0">
      <stop offset="0" stop-color="#b91c3c" stop-opacity="0.15"/>
      <stop offset="0.5" stop-color="#f472b6" stop-opacity="0.26"/>
      <stop offset="1" stop-color="#f59e0b" stop-opacity="0.10"/>
    </linearGradient>
    <filter id="soft" x="-20%" y="-20%" width="140%" height="140%">
      <feGaussianBlur stdDeviation="8" result="blur"/>
      <feColorMatrix in="blur" type="matrix" values="1 0 0 0 0  0 0.72 0 0 0  0 0 0.45 0 0  0 0 0 0.55 0"/>
      <feBlend in="SourceGraphic" mode="screen"/>
    </filter>
    <pattern id="paper" width="60" height="60" patternUnits="userSpaceOnUse">
      <path d="M0 59.5H60M59.5 0V60" stroke="#f8e7a0" stroke-opacity="0.055"/>
      <circle cx="12" cy="18" r="1" fill="#fff7d6" fill-opacity="0.08"/>
      <circle cx="44" cy="42" r="1.2" fill="#fff7d6" fill-opacity="0.06"/>
    </pattern>
  </defs>
  <rect width="1200" height="680" fill="url(#bg)"/>
  <rect width="1200" height="680" fill="url(#paper)"/>
  <path d="M0 510 C180 430 300 610 500 520 C760 400 885 615 1200 500 L1200 680 L0 680 Z" fill="url(#silk)"/>
  <circle cx="1050" cy="108" r="116" fill="#c9a227" opacity="0.10" filter="url(#soft)"/>
  <circle cx="164" cy="582" r="122" fill="#b91c3c" opacity="0.12" filter="url(#soft)"/>
  <rect x="44" y="42" width="1112" height="596" rx="34" fill="#12080b" fill-opacity="0.62" stroke="url(#gold)" stroke-opacity="0.65" stroke-width="2"/>
  
  <g transform="translate(642 104)">
    <g transform="translate(120 90)">
      <circle cx="86" cy="52" r="34" fill="#f6d7b0"/><rect x="44" y="88" width="94" height="210" rx="26" fill="#be123c"/>
      <text x="58" y="208" font-size="24" fill="#fde68a" font-family="Songti SC">晴雯</text>
    </g>
    <g transform="translate(300 112)">
      <path d="M24 220 C80 126 142 74 220 42" stroke="#fde68a" stroke-width="7" fill="none"/>
      <path d="M36 222 L220 42 M66 206 L220 42 M98 184 L220 42 M130 158 L220 42 M160 126 L220 42" stroke="#f8e7a0" stroke-width="2" opacity="0.7"/>
      <path d="M126 168 L188 74" stroke="#ef4444" stroke-width="5" stroke-dasharray="12 8"/>
      <text x="74" y="276" font-size="23" fill="#d6d3d1" font-family="PingFang SC">一把扇子，撕出平等与任性。</text>
    </g>
  </g>

  <g font-family="PingFang SC, Source Han Serif SC, Songti SC, serif">
    <text x="88" y="112" font-size="28" fill="#f8e7a0" letter-spacing="6">红楼梦整本书阅读</text>
    <text x="88" y="172" font-size="54" font-weight="700" fill="#fff7d6">晴雯撕扇</text>
    <text x="92" y="222" font-size="24" fill="#d6d3d1">第31回 · 娇俏真率</text>
    <rect x="88" y="258" width="520" height="2" fill="url(#gold)" opacity="0.75"/>
    <text x="92" y="310" font-size="26" fill="#fde68a">千金难买佳人一笑</text>
  </g>
</svg>