<svg xmlns="http://www.w3.org/2000/svg" width="1200" height="680" viewBox="0 0 1200 680" role="img" aria-label="宝钗借扇">
  <defs>
    <radialGradient id="bg" cx="20%" cy="10%" r="95%">
      <stop offset="0" stop-color="#5a1725"/>
      <stop offset="0.45" stop-color="#211014"/>
      <stop offset="1" stop-color="#080506"/>
    </radialGradient>
    <linearGradient id="gold" x1="0" y1="0" x2="1" y2="1">
      <stop offset="0" stop-color="#f8e7a0"/>
      <stop offset="0.52" stop-color="#c9a227"/>
      <stop offset="1" stop-color="#8b6b12"/>
    </linearGradient>
    <linearGradient id="silk" x1="0" y1="0" x2="1" y2="0">
      <stop offset="0" stop-color="#b91c3c" stop-opacity="0.15"/>
      <stop offset="0.5" stop-color="#f472b6" stop-opacity="0.26"/>
      <stop offset="1" stop-color="#f59e0b" stop-opacity="0.10"/>
    </linearGradient>
    <filter id="soft" x="-20%" y="-20%" width="140%" height="140%">
      <feGaussianBlur stdDeviation="8" result="blur"/>
      <feColorMatrix in="blur" type="matrix" values="1 0 0 0 0  0 0.72 0 0 0  0 0 0.45 0 0  0 0 0 0.55 0"/>
      <feBlend in="SourceGraphic" mode="screen"/>
    </filter>
    <pattern id="paper" width="60" height="60" patternUnits="userSpaceOnUse">
      <path d="M0 59.5H60M59.5 0V60" stroke="#f8e7a0" stroke-opacity="0.055"/>
      <circle cx="12" cy="18" r="1" fill="#fff7d6" fill-opacity="0.08"/>
      <circle cx="44" cy="42" r="1.2" fill="#fff7d6" fill-opacity="0.06"/>
    </pattern>
  </defs>
  <rect width="1200" height="680" fill="url(#bg)"/>
  <rect width="1200" height="680" fill="url(#paper)"/>
  <path d="M0 510 C180 430 300 610 500 520 C760 400 885 615 1200 500 L1200 680 L0 680 Z" fill="url(#silk)"/>
  <circle cx="1050" cy="108" r="116" fill="#c9a227" opacity="0.10" filter="url(#soft)"/>
  <circle cx="164" cy="582" r="122" fill="#b91c3c" opacity="0.12" filter="url(#soft)"/>
  <rect x="44" y="42" width="1112" height="596" rx="34" fill="#12080b" fill-opacity="0.62" stroke="url(#gold)" stroke-opacity="0.65" stroke-width="2"/>
  
  <g transform="translate(620 104)">
    <rect x="80" y="82" width="430" height="314" rx="28" fill="#140a0d" stroke="#c9a227" opacity="0.92"/>
    <g transform="translate(124 174)"><circle cx="42" cy="30" r="28" fill="#f6d7b0"/><rect x="10" y="62" width="78" height="122" rx="22" fill="#7f1d1d"/><text x="18" y="136" font-size="20" fill="#fde68a" font-family="Songti SC">黛玉</text></g>
    <g transform="translate(244 154)"><circle cx="42" cy="30" r="28" fill="#f6d7b0"/><rect x="10" y="62" width="78" height="142" rx="22" fill="#854d0e"/><text x="18" y="146" font-size="20" fill="#fde68a" font-family="Songti SC">宝钗</text></g>
    <g transform="translate(368 176)"><circle cx="42" cy="30" r="28" fill="#f6d7b0"/><rect x="10" y="62" width="78" height="120" rx="22" fill="#312e81"/><text x="18" y="134" font-size="20" fill="#fde68a" font-family="Songti SC">宝玉</text></g>
    <path d="M318 136 C362 96 424 90 474 116" fill="none" stroke="#fde68a" stroke-width="4"/>
    <path d="M316 138 L476 116 M346 126 L476 116 M376 116 L476 116" stroke="#f8e7a0" stroke-width="2" opacity="0.7"/>
    <text x="116" y="432" font-size="22" fill="#d6d3d1" font-family="PingFang SC">表面是玩笑，暗处是礼法、情感与分寸。</text>
  </g>

  <g font-family="PingFang SC, Source Han Serif SC, Songti SC, serif">
    <text x="88" y="112" font-size="28" fill="#f8e7a0" letter-spacing="6">红楼梦整本书阅读</text>
    <text x="88" y="172" font-size="54" font-weight="700" fill="#fff7d6">宝钗借扇</text>
    <text x="92" y="222" font-size="24" fill="#d6d3d1">第30回 · 机锋双敲</text>
    <rect x="88" y="258" width="520" height="2" fill="url(#gold)" opacity="0.75"/>
    <text x="92" y="310" font-size="26" fill="#fde68a">一句玩笑，三人心事</text>
  </g>
</svg>