<svg xmlns="http://www.w3.org/2000/svg" width="1280" height="720" viewBox="0 0 1280 720"><defs><linearGradient id="g" x1="0" x2="1"><stop stop-color="#07111f"/><stop offset="1" stop-color="#172554"/></linearGradient></defs><rect width="1280" height="720" fill="url(#g)"/><circle cx="1050" cy="120" r="180" fill="#38bdf8" opacity="0.13"/><circle cx="220" cy="620" r="220" fill="#a78bfa" opacity="0.12"/><text x="70" y="112" fill="#f8fafc" font-size="52" font-weight="900">能量转化与守恒定律</text><text x="70" y="168" fill="#bae6fd" font-size="28">怎样用实验现象和变量关系解释能量转化与守恒定律？</text><text x="70" y="225" fill="#cbd5e1" font-size="24">角色任务：能量转化分析师 · 课标节点：phy-m-energy-conservation</text><rect x="70" y="270" width="330" height="190" rx="24" fill="#0f172a" stroke="#38bdf8" stroke-width="4"/><text x="96" y="325" fill="#38bdf8" font-size="28" font-weight="800">动能</text><text x="96" y="374" fill="#dbeafe" font-size="21">学习能量转化与守恒定律先要明确观察对象和实验条件，不能把生活</text><text x="96" y="410" fill="#dbeafe" font-size="21">直觉直接当结论。</text><rect x="460" y="270" width="330" height="190" rx="24" fill="#0f172a" stroke="#a78bfa" stroke-width="4"/><text x="486" y="325" fill="#a78bfa" font-size="28" font-weight="800">势能</text><text x="486" y="374" fill="#dbeafe" font-size="21">把能量转化与守恒定律拆成可改变的变量、可观察的结果和需要控制</text><text x="486" y="410" fill="#dbeafe" font-size="21">的条件。</text><rect x="850" y="270" width="330" height="190" rx="24" fill="#0f172a" stroke="#22c55e" stroke-width="4"/><text x="876" y="325" fill="#22c55e" font-size="28" font-weight="800">守恒</text><text x="876" y="374" fill="#dbeafe" font-size="21">用测量数据、图像或现象证据检验解释，而不是只背公式或定义。</text><text x="876" y="410" fill="#dbeafe" font-size="21"></text><rect x="70" y="525" width="1140" height="105" rx="24" fill="#020617" opacity="0.72" stroke="#334155"/><text x="105" y="585" fill="#fbbf24" font-size="30" font-weight="800">记忆锚点</text><text x="260" y="585" fill="#e0f2fe" font-size="26">能量题先确定系统，再判断能量怎样转化和转移。</text><text x="70" y="675" fill="#64748b" font-size="18">TeachAny v7.14 · 初中物理完整模式 · AI 学伴 / TTS / 知识图谱 / Canvas+PhET 互动 / 课标挂树</text></svg>