<svg xmlns="http://www.w3.org/2000/svg" viewBox="0 0 1264 848" font-family="-apple-system,BlinkMacSystemFont,'PingFang SC',system-ui,sans-serif">
  <defs>
    <linearGradient id="hbg" x1="0" y1="0" x2="1" y2="1">
      <stop offset="0%" stop-color="#070e1a"/>
      <stop offset="50%" stop-color="#0c1a2e"/>
      <stop offset="100%" stop-color="#070e1a"/>
    </linearGradient>
    <radialGradient id="moonGlow" cx="50%" cy="45%" r="35%">
      <stop offset="0%" stop-color="rgba(196,181,160,.12)"/>
      <stop offset="100%" stop-color="transparent"/>
    </radialGradient>
    <linearGradient id="arrowH" x1="0" y1="0" x2="1" y2="0">
      <stop offset="0%" stop-color="#38bdf8"/>
      <stop offset="100%" stop-color="#a78bfa"/>
    </linearGradient>
  </defs>
  <rect width="1264" height="848" fill="url(#hbg)"/>
  <rect width="1264" height="848" fill="url(#moonGlow)"/>
  <rect x="1" y="1" width="1262" height="846" fill="none" stroke="#1e3a5f" stroke-width="1" rx="8"/>
  <text x="632" y="62" text-anchor="middle" fill="#eef6ff" font-size="32" font-weight="800">月壤资源利用技术 · 学习地图</text>
  <text x="632" y="92" text-anchor="middle" fill="#8fa8c8" font-size="16">成分分析 → 提取方法 → 工程应用 → 迁移任务</text>
  <rect x="40" y="120" width="280" height="310" rx="14" fill="rgba(16,35,61,.8)" stroke="#1e3a5f"/>
  <rect x="40" y="120" width="280" height="44" rx="14" fill="rgba(239,68,68,.15)"/>
  <rect x="40" y="150" width="280" height="14" fill="rgba(239,68,68,.15)"/>
  <text x="180" y="150" text-anchor="middle" fill="#fca5a5" font-size="18" font-weight="700">1 · 成分分析</text>
  <text x="60" y="195" fill="#eef6ff" font-size="14" font-weight="600">月壤化学成分</text>
  <rect x="60" y="205" width="240" height="22" rx="4" fill="rgba(148,163,184,.08)"/>
  <rect x="60" y="205" width="103" height="22" rx="4" fill="#ef4444" opacity=".7"/>
  <rect x="163" y="205" width="48" height="22" fill="#f59e0b" opacity=".7"/>
  <rect x="211" y="205" width="41" height="22" fill="#22c55e" opacity=".7"/>
  <rect x="252" y="205" width="24" height="22" fill="#3b82f6" opacity=".7"/>
  <rect x="276" y="205" width="17" height="22" fill="#8b5cf6" opacity=".7"/>
  <text x="180" y="220" text-anchor="middle" fill="#fff" font-size="9" font-weight="600">SiO2 43% | Al2O3 | FeO | MgO | CaO</text>
  <text x="60" y="250" fill="#cbd5e1" font-size="13">• SiO2 约 43%：硅酸盐骨架</text>
  <text x="60" y="272" fill="#cbd5e1" font-size="13">• FeO 约 17%：提氧最佳目标</text>
  <text x="60" y="294" fill="#cbd5e1" font-size="13">• 含氧总量 40-45%</text>
  <rect x="60" y="310" width="240" height="36" rx="8" fill="rgba(34,197,94,.1)" stroke="rgba(34,197,94,.25)"/>
  <text x="180" y="333" text-anchor="middle" fill="#22c55e" font-size="13" font-weight="600">核心洞察：氧是最大资源库</text>
  <text x="60" y="375" fill="#94a3b8" font-size="12">月海 vs 高地月壤成分差异大</text>
  <text x="60" y="395" fill="#94a3b8" font-size="12">纳米铁珠 = 太空风化证据</text>
  <line x1="325" y1="275" x2="365" y2="275" stroke="url(#arrowH)" stroke-width="2.5"/>
  <polygon points="363,268 377,275 363,282" fill="#a78bfa"/>
  <rect x="382" y="120" width="280" height="310" rx="14" fill="rgba(16,35,61,.8)" stroke="#1e3a5f"/>
  <rect x="382" y="120" width="280" height="44" rx="14" fill="rgba(56,189,248,.15)"/>
  <rect x="382" y="150" width="280" height="14" fill="rgba(56,189,248,.15)"/>
  <text x="522" y="150" text-anchor="middle" fill="#7dd3fc" font-size="18" font-weight="700">2 · 提取方法</text>
  <rect x="400" y="178" width="244" height="60" rx="8" fill="rgba(34,197,94,.08)" stroke="rgba(34,197,94,.2)"/>
  <text x="410" y="198" fill="#22c55e" font-size="14" font-weight="600">氢还原法</text>
  <text x="410" y="216" fill="#cbd5e1" font-size="12">FeO + H2 → Fe + H2O → O2</text>
  <text x="410" y="232" fill="#94a3b8" font-size="11">~1000°C · 3-5 kWh/kg · 产率2-3%</text>
  <rect x="400" y="248" width="244" height="60" rx="8" fill="rgba(239,68,68,.08)" stroke="rgba(239,68,68,.2)"/>
  <text x="410" y="268" fill="#fca5a5" font-size="14" font-weight="600">熔融电解法</text>
  <text x="410" y="286" fill="#cbd5e1" font-size="12">直接电解熔融月壤</text>
  <text x="410" y="302" fill="#94a3b8" font-size="11">&gt;1600°C · 8 kWh/kg · 产率40-45%</text>
  <rect x="400" y="318" width="244" height="60" rx="8" fill="rgba(251,191,36,.08)" stroke="rgba(251,191,36,.2)"/>
  <text x="410" y="338" fill="#fbbf24" font-size="14" font-weight="600">碳热还原法</text>
  <text x="410" y="356" fill="#cbd5e1" font-size="12">需碳源，月球无天然碳</text>
  <text x="410" y="372" fill="#94a3b8" font-size="11">&gt;1500°C · 6.5 kWh/kg · 中等产率</text>
  <rect x="400" y="390" width="244" height="30" rx="6" fill="rgba(167,139,250,.1)" stroke="rgba(167,139,250,.2)"/>
  <text x="522" y="410" text-anchor="middle" fill="#a78bfa" font-size="12" font-weight="600">核心权衡：产率 vs 能耗</text>
  <line x1="667" y1="275" x2="707" y2="275" stroke="url(#arrowH)" stroke-width="2.5"/>
  <polygon points="705,268 719,275 705,282" fill="#a78bfa"/>
  <rect x="724" y="120" width="240" height="310" rx="14" fill="rgba(16,35,61,.8)" stroke="#1e3a5f"/>
  <rect x="724" y="120" width="240" height="44" rx="14" fill="rgba(251,191,36,.15)"/>
  <rect x="724" y="150" width="240" height="14" fill="rgba(251,191,36,.15)"/>
  <text x="844" y="150" text-anchor="middle" fill="#fbbf24" font-size="18" font-weight="700">3 · 工程应用</text>
  <rect x="742" y="178" width="204" height="52" rx="8" fill="rgba(56,189,248,.08)" stroke="rgba(56,189,248,.2)"/>
  <text x="752" y="200" fill="#38bdf8" font-size="14" font-weight="600">呼吸用氧 O2</text>
  <text x="752" y="218" fill="#cbd5e1" font-size="12">0.84 kg/人/天</text>
  <rect x="742" y="240" width="204" height="52" rx="8" fill="rgba(167,139,250,.08)" stroke="rgba(167,139,250,.2)"/>
  <text x="752" y="262" fill="#a78bfa" font-size="14" font-weight="600">金属冶炼</text>
  <text x="752" y="280" fill="#cbd5e1" font-size="12">Fe / Al / Ti / Si</text>
  <rect x="742" y="302" width="204" height="52" rx="8" fill="rgba(196,181,160,.1)" stroke="rgba(196,181,160,.25)"/>
  <text x="752" y="324" fill="#c4b5a0" font-size="14" font-weight="600">建材3D打印</text>
  <text x="752" y="342" fill="#cbd5e1" font-size="12">激光烧结 / 微波熔融</text>
  <rect x="742" y="366" width="204" height="50" rx="8" fill="rgba(148,163,184,.06)" stroke="rgba(148,163,184,.15)"/>
  <text x="752" y="388" fill="#94a3b8" font-size="13" font-weight="600">经济驱动力</text>
  <text x="752" y="406" fill="#94a3b8" font-size="11">地球→月球 $50K/kg</text>
  <line x1="969" y1="275" x2="1009" y2="275" stroke="url(#arrowH)" stroke-width="2.5"/>
  <polygon points="1007,268 1021,275 1007,282" fill="#a78bfa"/>
  <rect x="1026" y="120" width="200" height="310" rx="14" fill="rgba(16,35,61,.8)" stroke="#1e3a5f"/>
  <rect x="1026" y="120" width="200" height="44" rx="14" fill="rgba(167,139,250,.15)"/>
  <rect x="1026" y="150" width="200" height="14" fill="rgba(167,139,250,.15)"/>
  <text x="1126" y="150" text-anchor="middle" fill="#a78bfa" font-size="18" font-weight="700">4 · 迁移</text>
  <text x="1046" y="195" fill="#eef6ff" font-size="14" font-weight="600">迁移到其他天体</text>
  <rect x="1044" y="208" width="164" height="44" rx="6" fill="rgba(239,68,68,.08)"/>
  <text x="1126" y="228" text-anchor="middle" fill="#fca5a5" font-size="13">火星 ISRU</text>
  <text x="1126" y="244" text-anchor="middle" fill="#cbd5e1" font-size="10">CO2大气 + 水冰</text>
  <rect x="1044" y="260" width="164" height="44" rx="6" fill="rgba(56,189,248,.08)"/>
  <text x="1126" y="280" text-anchor="middle" fill="#7dd3fc" font-size="13">小行星 ISRU</text>
  <text x="1126" y="296" text-anchor="middle" fill="#cbd5e1" font-size="10">金属富集型</text>
  <rect x="1044" y="312" width="164" height="44" rx="6" fill="rgba(251,191,36,.08)"/>
  <text x="1126" y="332" text-anchor="middle" fill="#fbbf24" font-size="13">通用方法论</text>
  <text x="1126" y="348" text-anchor="middle" fill="#cbd5e1" font-size="10">成分→约束→方法→优化</text>
  <rect x="1044" y="370" width="164" height="44" rx="6" fill="rgba(34,197,94,.1)" stroke="rgba(34,197,94,.2)"/>
  <text x="1126" y="397" text-anchor="middle" fill="#22c55e" font-size="12" font-weight="600">环境约束决定技术路线</text>
  <rect x="40" y="450" width="1186" height="120" rx="14" fill="rgba(16,35,61,.6)" stroke="#1e3a5f"/>
  <text x="632" y="480" text-anchor="middle" fill="#eef6ff" font-size="18" font-weight="700">月壤 ISRU 四大约束</text>
  <rect x="60" y="498" width="270" height="55" rx="8" fill="rgba(239,68,68,.08)" stroke="rgba(239,68,68,.2)"/>
  <text x="195" y="520" text-anchor="middle" fill="#fca5a5" font-size="14" font-weight="600">真空环境</text>
  <text x="195" y="540" text-anchor="middle" fill="#cbd5e1" font-size="12">散热仅靠辐射，无对流</text>
  <rect x="350" y="498" width="270" height="55" rx="8" fill="rgba(251,191,36,.08)" stroke="rgba(251,191,36,.2)"/>
  <text x="485" y="520" text-anchor="middle" fill="#fbbf24" font-size="14" font-weight="600">极端温差 300°C</text>
  <text x="485" y="540" text-anchor="middle" fill="#cbd5e1" font-size="12">-170°C ~ +130°C 热循环</text>
  <rect x="640" y="498" width="270" height="55" rx="8" fill="rgba(56,189,248,.08)" stroke="rgba(56,189,248,.2)"/>
  <text x="775" y="520" text-anchor="middle" fill="#7dd3fc" font-size="14" font-weight="600">1/6 重力</text>
  <text x="775" y="540" text-anchor="middle" fill="#cbd5e1" font-size="12">熔融池形态/粉尘行为异常</text>
  <rect x="930" y="498" width="270" height="55" rx="8" fill="rgba(167,139,250,.08)" stroke="rgba(167,139,250,.2)"/>
  <text x="1065" y="520" text-anchor="middle" fill="#a78bfa" font-size="14" font-weight="600">辐射环境</text>
  <text x="1065" y="540" text-anchor="middle" fill="#cbd5e1" font-size="12">设备寿命和材料退化</text>
  <rect x="40" y="590" width="1186" height="230" rx="14" fill="rgba(16,35,61,.6)" stroke="#1e3a5f"/>
  <text x="632" y="620" text-anchor="middle" fill="#eef6ff" font-size="18" font-weight="700">ISRU 完整技术流程</text>
  <rect x="70" y="640" width="160" height="80" rx="10" fill="rgba(196,181,160,.08)" stroke="rgba(196,181,160,.25)"/>
  <text x="150" y="692" text-anchor="middle" fill="#f1f5f9" font-size="14" font-weight="600">1.采掘</text>
  <text x="150" y="710" text-anchor="middle" fill="#94a3b8" font-size="11">0-10m深度</text>
  <line x1="235" y1="680" x2="270" y2="680" stroke="#38bdf8" stroke-width="2"/>
  <polygon points="268,674 278,680 268,686" fill="#38bdf8"/>
  <rect x="280" y="640" width="160" height="80" rx="10" fill="rgba(196,181,160,.08)" stroke="rgba(196,181,160,.25)"/>
  <text x="360" y="692" text-anchor="middle" fill="#f1f5f9" font-size="14" font-weight="600">2.预处理</text>
  <text x="360" y="710" text-anchor="middle" fill="#94a3b8" font-size="11">筛分+磁选</text>
  <line x1="445" y1="680" x2="480" y2="680" stroke="#38bdf8" stroke-width="2"/>
  <polygon points="478,674 488,680 478,686" fill="#38bdf8"/>
  <rect x="490" y="640" width="160" height="80" rx="10" fill="rgba(239,68,68,.08)" stroke="rgba(239,68,68,.25)"/>
  <text x="570" y="692" text-anchor="middle" fill="#f1f5f9" font-size="14" font-weight="600">3.高温反应</text>
  <text x="570" y="710" text-anchor="middle" fill="#94a3b8" font-size="11">1000-1600°C</text>
  <line x1="655" y1="680" x2="690" y2="680" stroke="#38bdf8" stroke-width="2"/>
  <polygon points="688,674 698,680 688,686" fill="#38bdf8"/>
  <rect x="700" y="640" width="160" height="80" rx="10" fill="rgba(56,189,248,.08)" stroke="rgba(56,189,248,.25)"/>
  <text x="780" y="692" text-anchor="middle" fill="#f1f5f9" font-size="14" font-weight="600">4.产物分离</text>
  <text x="780" y="710" text-anchor="middle" fill="#94a3b8" font-size="11">冷凝+真空抽氧</text>
  <line x1="865" y1="680" x2="900" y2="680" stroke="#38bdf8" stroke-width="2"/>
  <polygon points="898,674 908,680 898,686" fill="#38bdf8"/>
  <rect x="910" y="640" width="160" height="80" rx="10" fill="rgba(34,197,94,.08)" stroke="rgba(34,197,94,.25)"/>
  <text x="990" y="692" text-anchor="middle" fill="#f1f5f9" font-size="14" font-weight="600">5.工程应用</text>
  <text x="990" y="710" text-anchor="middle" fill="#94a3b8" font-size="11">O2/金属/建材</text>
  <rect x="70" y="740" width="1126" height="60" rx="10" fill="rgba(251,191,36,.06)" stroke="rgba(251,191,36,.15)"/>
  <text x="632" y="764" text-anchor="middle" fill="#fbbf24" font-size="15" font-weight="600">核心公式：产氧量 = 月壤质量 × 目标氧化物含量 × 方法产率</text>
  <text x="632" y="786" text-anchor="middle" fill="#cbd5e1" font-size="13">例：50kg 月海月壤 × 17% FeO × 2.5% 氢还原产率 = 1.3kg O₂</text>
</svg>