<svg xmlns="http://www.w3.org/2000/svg" width="1280" height="720" viewBox="0 0 1280 720">
<defs><linearGradient id="g" x1="0" y1="0" x2="1" y2="1"><stop stop-color="#061826"/><stop offset="1" stop-color="#123b34"/></linearGradient><filter id="shadow"><feDropShadow dx="0" dy="10" stdDeviation="14" flood-color="#000" flood-opacity=".32"/></filter></defs>
<rect width="1280" height="720" fill="url(#g)"/>
<circle cx="115" cy="105" r="62" fill="#22c55e" opacity=".18"/>
<circle cx="1080" cy="120" r="52" fill="#38bdf8" opacity=".18"/>
<circle cx="1140" cy="560" r="76" fill="#a78bfa" opacity=".18"/>
<circle cx="160" cy="575" r="46" fill="#f59e0b" opacity=".18"/>
<text x="80" y="106" fill="#bbf7d0" font-size="34" font-family="PingFang SC,Arial" font-weight="800">从课堂走向真实问题</text>
<text x="80" y="180" fill="#ffffff" font-size="58" font-family="PingFang SC,Arial" font-weight="900">有丝分裂：应用场景</text>
<rect x="85" y="275" width="235" height="106" rx="24" fill="#0b1628" stroke="#a78bfa" stroke-opacity=".62" filter="url(#shadow)"/>
<text x="203" y="338" text-anchor="middle" fill="#e0f2fe" font-size="25" font-family="PingFang SC,Arial" font-weight="800">提出问题</text>
<path d="M 333 328 H 352" stroke="#86efac" stroke-width="5" stroke-linecap="round"/>
<rect x="370" y="275" width="235" height="106" rx="24" fill="#0b1628" stroke="#34d399" stroke-opacity=".62" filter="url(#shadow)"/>
<text x="488" y="338" text-anchor="middle" fill="#e0f2fe" font-size="25" font-family="PingFang SC,Arial" font-weight="800">选择证据</text>
<path d="M 618 328 H 637" stroke="#86efac" stroke-width="5" stroke-linecap="round"/>
<rect x="655" y="275" width="235" height="106" rx="24" fill="#0b1628" stroke="#f59e0b" stroke-opacity=".62" filter="url(#shadow)"/>
<text x="773" y="338" text-anchor="middle" fill="#e0f2fe" font-size="25" font-family="PingFang SC,Arial" font-weight="800">分析变量</text>
<path d="M 903 328 H 922" stroke="#86efac" stroke-width="5" stroke-linecap="round"/>
<rect x="940" y="275" width="235" height="106" rx="24" fill="#0b1628" stroke="#38bdf8" stroke-opacity=".62" filter="url(#shadow)"/>
<text x="1058" y="338" text-anchor="middle" fill="#e0f2fe" font-size="25" font-family="PingFang SC,Arial" font-weight="800">形成结论</text>
<rect x="86" y="446" width="1108" height="50" rx="16" fill="#ffffff" opacity=".08"/>
<text x="122" y="480" fill="#dbeafe" font-size="22" font-family="PingFang SC,Arial">• 描述细胞通过不同的方式进行分裂，其中有丝分裂保证了遗传信息在亲代和子代细胞中的一致性。</text>
<rect x="86" y="508" width="1108" height="50" rx="16" fill="#ffffff" opacity=".08"/>
<text x="122" y="542" fill="#dbeafe" font-size="22" font-family="PingFang SC,Arial">• 观察处于细胞周期不同阶段的细胞，结合有丝分裂模型，描述细胞增殖的主要特征。</text>
<rect x="86" y="570" width="1108" height="50" rx="16" fill="#ffffff" opacity=".08"/>
<text x="122" y="604" fill="#dbeafe" font-size="22" font-family="PingFang SC,Arial">• 制作和观察根尖细胞有丝分裂简易装片，或观察其永久装片。</text>
</svg>