<svg viewBox="0 0 600 200" xmlns="http://www.w3.org/2000/svg">
  <rect width="600" height="200" fill="#1e293b" rx="8"/>
  <g transform="translate(50,40)">
    <text x="50" y="10" fill="#7dd3fc" font-size="13" text-anchor="middle" font-weight="600">P1 三角桁架</text>
    <polygon points="50,30 10,110 90,110" fill="none" stroke="#7dd3fc" stroke-width="2.5"/>
    <rect x="5" y="110" width="90" height="5" fill="#64748b" rx="2"/>
  </g>
  <g transform="translate(220,40)">
    <text x="80" y="10" fill="#6ee7b3" font-size="13" text-anchor="middle" font-weight="600">P2 拱形</text>
    <path d="M10,110 Q80,20 150,110" fill="none" stroke="#6ee7b3" stroke-width="2.5"/>
    <rect x="5" y="110" width="150" height="5" fill="#64748b" rx="2"/>
  </g>
  <g transform="translate(420,40)">
    <text x="70" y="10" fill="#c4b5fd" font-size="13" text-anchor="middle" font-weight="600">P3 蜂窝</text>
    <g fill="none" stroke="#c4b5fd" stroke-width="1.8">
      <polygon points="30,40 50,30 70,40 70,60 50,70 30,60"/>
      <polygon points="70,40 90,30 110,40 110,60 90,70 70,60"/>
      <polygon points="50,70 70,60 90,70 90,90 70,100 50,90"/>
    </g>
    <rect x="25" y="110" width="90" height="5" fill="#64748b" rx="2"/>
  </g>
</svg>