<svg viewBox="0 0 560 160" xmlns="http://www.w3.org/2000/svg">
  <rect width="560" height="160" fill="#0f172a" rx="8"/>
  <text x="280" y="20" fill="#e2e8f0" font-size="12" text-anchor="middle" font-weight="600">固定材料 → 不同结构 → 不同承载效率</text>
  <rect x="20" y="50" width="50" height="80" fill="#475569" rx="4"/>
  <text x="45" y="96" fill="#e2e8f0" font-size="11" text-anchor="middle">等量纸</text>
  <defs><marker id="ah" markerWidth="6" markerHeight="4" refX="6" refY="2" orient="auto"><polygon points="0 0, 6 2, 0 4" fill="#94a3b8"/></marker></defs>
  <path d="M80,90 L110,90" stroke="#94a3b8" stroke-width="1.5" marker-end="url(#ah)"/>
  <rect x="120" y="60" width="100" height="60" fill="rgba(239,68,68,0.1)" stroke="#ef4444" stroke-width="1.5" rx="4"/>
  <text x="170" y="55" fill="#ef4444" font-size="11" text-anchor="middle">η 低</text>
  <path d="M230,90 L260,90" stroke="#94a3b8" stroke-width="1.5" marker-end="url(#ah)"/>
  <rect x="270" y="60" width="100" height="60" fill="rgba(251,191,36,0.1)" stroke="#fbbf24" stroke-width="1.5" rx="4"/>
  <polygon points="320,70 295,110 345,110" fill="none" stroke="#fbbf24" stroke-width="2"/>
  <text x="320" y="55" fill="#fbbf24" font-size="11" text-anchor="middle">η 中</text>
  <path d="M380,90 L410,90" stroke="#94a3b8" stroke-width="1.5" marker-end="url(#ah)"/>
  <rect x="420" y="60" width="120" height="60" fill="rgba(110,231,183,0.1)" stroke="#6ee7b3" stroke-width="1.5" rx="4"/>
  <polygon points="460,70 435,110 485,110" fill="none" stroke="#6ee7b3" stroke-width="2"/>
  <polygon points="500,70 475,110 525,110" fill="none" stroke="#6ee7b3" stroke-width="2"/>
  <text x="480" y="55" fill="#6ee7b3" font-size="11" text-anchor="middle">η 高</text>
</svg>