<svg xmlns="http://www.w3.org/2000/svg" width="1280" height="720" viewBox="0 0 1280 720">
  <defs><linearGradient id="g" x1="0" x2="1"><stop stop-color="#07111f"/><stop offset="1" stop-color="#172554"/></linearGradient></defs>
  <rect width="1280" height="720" fill="url(#g)"/>
  <circle cx="1050" cy="120" r="180" fill="#38bdf8" opacity="0.13"/>
  <circle cx="220" cy="620" r="220" fill="#a78bfa" opacity="0.12"/>
  <text x="70" y="112" fill="#f8fafc" font-size="52" font-weight="900">元素周期律</text>
  <text x="70" y="168" fill="#bae6fd" font-size="28">怎样不用死记硬背，也能根据元素在周期表中的位置预测它的性质？</text>
  <text x="70" y="225" fill="#cbd5e1" font-size="24">角色任务：元素性质预测师 · 课标节点：chem-h-periodic-law</text>
  
  <rect x="70" y="270" width="330" height="190" rx="24" fill="#0f172a" stroke="#38bdf8" stroke-width="4"/>
  <text x="96" y="325" fill="#38bdf8" font-size="28" font-weight="800">周期与电子层</text>
  <text x="96" y="374" fill="#dbeafe" font-size="21">同一周期元素电子层数相同，从左到右核电荷数增加，最外层电子数</text>
  <text x="96" y="410" fill="#dbeafe" font-size="21">逐渐变化。</text>
  <rect x="460" y="270" width="330" height="190" rx="24" fill="#0f172a" stroke="#a78bfa" stroke-width="4"/>
  <text x="486" y="325" fill="#a78bfa" font-size="28" font-weight="800">族与最外层电子</text>
  <text x="486" y="374" fill="#dbeafe" font-size="21">同主族元素最外层电子数相同，因此化学性质具有相似性。</text>
  <text x="486" y="410" fill="#dbeafe" font-size="21"></text>
  <rect x="850" y="270" width="330" height="190" rx="24" fill="#0f172a" stroke="#22c55e" stroke-width="4"/>
  <text x="876" y="325" fill="#22c55e" font-size="28" font-weight="800">性质递变</text>
  <text x="876" y="374" fill="#dbeafe" font-size="21">同周期从左到右原子半径总体减小，金属性减弱，非金属性增强；同</text>
  <text x="876" y="410" fill="#dbeafe" font-size="21">主族向下金属性增强。</text>
  <rect x="70" y="525" width="1140" height="105" rx="24" fill="#020617" opacity="0.72" stroke="#334155"/>
  <text x="105" y="585" fill="#fbbf24" font-size="30" font-weight="800">记忆锚点</text>
  <text x="260" y="585" fill="#e0f2fe" font-size="26">周期看层数，主族看外层电子；左金右非，上小下大。</text>
  <text x="70" y="675" fill="#64748b" font-size="18">TeachAny v7.14 · 高中化学完整模式 · AI 学伴 / TTS / 知识图谱 / Canvas 互动 / 课标挂树</text>
</svg>