<?xml version="1.0" encoding="UTF-8"?>
<svg xmlns="http://www.w3.org/2000/svg" viewBox="0 0 1280 720" role="img" aria-label="纸张纤维方向对刚度的影响（项目补充） · 知识全景地图">
<defs>
  <linearGradient id="bg" x1="0" y1="0" x2="1" y2="1"><stop offset="0%" stop-color="#f8fafc"/><stop offset="100%" stop-color="#e2e8f0"/></linearGradient>
  <linearGradient id="hubGrad" x1="0" y1="0" x2="0" y2="1"><stop offset="0%" stop-color="#0ea5e9" stop-opacity="0.15"/><stop offset="100%" stop-color="#0369a1" stop-opacity="0.05"/></linearGradient>
  <filter id="cardShadow" x="-15%" y="-15%" width="130%" height="140%">
    <feDropShadow dx="0" dy="4" stdDeviation="6" flood-color="#0f172a" flood-opacity="0.12"/>
  </filter>
  <marker id="arrow" markerWidth="8" markerHeight="8" refX="6" refY="3" orient="auto">
    <path d="M0,0 L6,3 L0,6 Z" fill="#0ea5e9" opacity="0.5"/>
  </marker>
  <pattern id="dotGrid" width="32" height="32" patternUnits="userSpaceOnUse">
    <circle cx="4" cy="4" r="1.3" fill="#0ea5e9" opacity="0.07"/>
  </pattern>
</defs>
<rect width="1280" height="720" fill="url(#bg)"/>
<rect width="1280" height="720" fill="url(#dotGrid)"/>
<rect x="0" y="0" width="1280" height="56" fill="white" opacity="0.55"/>
<text x="48" y="36" font-family="'Noto Sans SC', 'PingFang SC', 'Microsoft YaHei', system-ui, sans-serif" font-size="15" font-weight="600" fill="#64748b">TeachAny · 知识全景地图</text>
<rect x="1080" y="14" width="152" height="28" rx="14" fill="#fef3c7" stroke="#f59e0b" stroke-width="1.5"/><text x="1156" y="33" text-anchor="middle" font-family="'Noto Sans SC', 'PingFang SC', 'Microsoft YaHei', system-ui, sans-serif" font-size="13" font-weight="700" fill="#b45309">PBL 课标外补充</text>
<ellipse cx="640" cy="300" rx="320" ry="120" fill="url(#hubGrad)"/>
<circle cx="640" cy="232" r="62" fill="#0ea5e9" opacity="0.08"/>
<circle cx="640" cy="232" r="44" fill="white" stroke="#0ea5e9" stroke-width="3" opacity="0.95"/>
<circle cx="640.0" cy="200.0" r="5" fill="#0ea5e9" opacity="0.75"/>
<circle cx="667.7" cy="216.0" r="5" fill="#0ea5e9" opacity="0.75"/>
<circle cx="667.7" cy="248.0" r="5" fill="#0ea5e9" opacity="0.75"/>
<circle cx="640.0" cy="264.0" r="5" fill="#0ea5e9" opacity="0.75"/>
<circle cx="612.3" cy="248.0" r="5" fill="#0ea5e9" opacity="0.75"/>
<circle cx="612.3" cy="216.0" r="5" fill="#0ea5e9" opacity="0.75"/>
<circle cx="640" cy="232" r="10" fill="#0ea5e9"/>
<text x="640" y="248" text-anchor="middle" font-family="'Noto Sans SC', 'PingFang SC', 'Microsoft YaHei', system-ui, sans-serif" font-size="46" font-weight="800" fill="#0f172a">纸张纤维方向对刚度的影响（项目补充）</text>
<text x="640" y="286" text-anchor="middle" font-family="'Noto Sans SC', 'PingFang SC', 'Microsoft YaHei', system-ui, sans-serif" font-size="20" font-weight="500" fill="#64748b">高中 · 高2 · 跨学科 · 材料力学·PBL补充 · PBL 项目补充 · 控制与实现</text>
<line x1="500" y1="302" x2="780" y2="302" stroke="#0ea5e9" stroke-width="3" stroke-linecap="round" opacity="0.65"/>
<text x="640" y="328" text-anchor="middle" font-family="'Noto Sans SC', 'PingFang SC', 'Microsoft YaHei', system-ui, sans-serif" font-size="15" fill="#475569">课标外补充：纸张纤维方向如何影响抗弯刚度，在承重纸桥项目中统一裁剪方向以控制变量</text>
<path d="M640,340 Q410,380 180,430" fill="none" stroke="#0ea5e9" stroke-width="2" stroke-dasharray="7 5" opacity="0.45" marker-end="url(#arrow)"/>
<path d="M640,340 Q520,420 400,510" fill="none" stroke="#0ea5e9" stroke-width="2" stroke-dasharray="7 5" opacity="0.45" marker-end="url(#arrow)"/>
<path d="M640,340 Q640,430 640,530" fill="none" stroke="#0ea5e9" stroke-width="2" stroke-dasharray="7 5" opacity="0.45" marker-end="url(#arrow)"/>
<path d="M640,340 Q760,420 880,510" fill="none" stroke="#0ea5e9" stroke-width="2" stroke-dasharray="7 5" opacity="0.45" marker-end="url(#arrow)"/>
<path d="M640,340 Q870,380 1100,430" fill="none" stroke="#0ea5e9" stroke-width="2" stroke-dasharray="7 5" opacity="0.45" marker-end="url(#arrow)"/>
<g filter="url(#cardShadow)">
<rect x="56.0" y="421.0" width="248" height="118" rx="14" fill="white" stroke="#6366f1" stroke-width="2.5"/>
<rect x="56.0" y="421.0" width="248" height="34" rx="14" fill="#eef2ff"/>
<rect x="56.0" y="441.0" width="248" height="14" fill="#eef2ff"/>
<rect x="56.0" y="421.0" width="5" height="118" rx="2.5" fill="#6366f1"/>
<text x="180" y="445.0" text-anchor="middle" font-family="'Noto Sans SC', 'PingFang SC', 'Microsoft YaHei', system-ui, sans-serif" font-size="18" font-weight="700" fill="#1e293b">解释纸张纤维方向与抗弯刚度的关系</text>
<text x="72.0" y="473.0" font-family="'Noto Sans SC', 'PingFang SC', 'Microsoft YaHei', system-ui, sans-serif" font-size="13" font-weight="400" fill="#475569"><tspan x="72.0" dy="0">· 沿纤维方向与垂直纤维方向的弯曲行为差异</tspan></text>
</g>
<g filter="url(#cardShadow)">
<rect x="276.0" y="501.0" width="248" height="118" rx="14" fill="white" stroke="#06b6d4" stroke-width="2.5"/>
<rect x="276.0" y="501.0" width="248" height="34" rx="14" fill="#ecfeff"/>
<rect x="276.0" y="521.0" width="248" height="14" fill="#ecfeff"/>
<rect x="276.0" y="501.0" width="5" height="118" rx="2.5" fill="#06b6d4"/>
<text x="400" y="525.0" text-anchor="middle" font-family="'Noto Sans SC', 'PingFang SC', 'Microsoft YaHei', system-ui, sans-serif" font-size="18" font-weight="700" fill="#1e293b">通过互动实验区分顺纤维方向与横纤维…</text>
<text x="292.0" y="553.0" font-family="'Noto Sans SC', 'PingFang SC', 'Microsoft YaHei', system-ui, sans-serif" font-size="13" font-weight="400" fill="#475569"><tspan x="292.0" dy="0">· 理解各向异性概念</tspan></text>
</g>
<g filter="url(#cardShadow)">
<rect x="516.0" y="521.0" width="248" height="118" rx="14" fill="white" stroke="#10b981" stroke-width="2.5"/>
<rect x="516.0" y="521.0" width="248" height="34" rx="14" fill="#ecfdf5"/>
<rect x="516.0" y="541.0" width="248" height="14" fill="#ecfdf5"/>
<rect x="516.0" y="521.0" width="5" height="118" rx="2.5" fill="#10b981"/>
<text x="640" y="545.0" text-anchor="middle" font-family="'Noto Sans SC', 'PingFang SC', 'Microsoft YaHei', system-ui, sans-serif" font-size="18" font-weight="700" fill="#1e293b">在纸桥项目中统一裁剪方向以控制变量</text>
<text x="532.0" y="573.0" font-family="'Noto Sans SC', 'PingFang SC', 'Microsoft YaHei', system-ui, sans-serif" font-size="13" font-weight="400" fill="#475569"><tspan x="532.0" dy="0">· 在《材料质量与胶水用量控制记录表》中记录纤维方向信息</tspan></text>
</g>
<g filter="url(#cardShadow)">
<rect x="756.0" y="501.0" width="248" height="118" rx="14" fill="white" stroke="#f59e0b" stroke-width="2.5"/>
<rect x="756.0" y="501.0" width="248" height="34" rx="14" fill="#fffbeb"/>
<rect x="756.0" y="521.0" width="248" height="14" fill="#fffbeb"/>
<rect x="756.0" y="501.0" width="5" height="118" rx="2.5" fill="#f59e0b"/>
<text x="880" y="525.0" text-anchor="middle" font-family="'Noto Sans SC', 'PingFang SC', 'Microsoft YaHei', system-ui, sans-serif" font-size="18" font-weight="700" fill="#1e293b">易错提醒</text>
<text x="772.0" y="553.0" font-family="'Noto Sans SC', 'PingFang SC', 'Microsoft YaHei', system-ui, sans-serif" font-size="13" font-weight="400" fill="#475569"><tspan x="772.0" dy="0">· 混淆MD和CD方向，想当然认为A4纸长边一定是纤维纵向</tspan></text>
</g>
<g filter="url(#cardShadow)">
<rect x="976.0" y="421.0" width="248" height="118" rx="14" fill="white" stroke="#ec4899" stroke-width="2.5"/>
<rect x="976.0" y="421.0" width="248" height="34" rx="14" fill="#fdf2f8"/>
<rect x="976.0" y="441.0" width="248" height="14" fill="#fdf2f8"/>
<rect x="976.0" y="421.0" width="5" height="118" rx="2.5" fill="#ec4899"/>
<text x="1100" y="445.0" text-anchor="middle" font-family="'Noto Sans SC', 'PingFang SC', 'Microsoft YaHei', system-ui, sans-serif" font-size="18" font-weight="700" fill="#1e293b">抗弯刚度</text>
<text x="992.0" y="473.0" font-family="'Noto Sans SC', 'PingFang SC', 'Microsoft YaHei', system-ui, sans-serif" font-size="13" font-weight="400" fill="#475569"><tspan x="992.0" dy="0">· 拓展迁移</tspan></text>
</g>
<text x="1248" y="702" text-anchor="end" font-family="'Noto Sans SC', 'PingFang SC', 'Microsoft YaHei', system-ui, sans-serif" font-size="11" fill="#94a3b8">ext-7be00e85 · SVG hero v8</text>
</svg>