<svg xmlns="http://www.w3.org/2000/svg" width="1000" height="560" viewBox="0 0 1000 560"><rect width="1000" height="560" fill="#05070b"/><text x="60" y="70" fill="#f8fafc" font-family="Songti SC" font-size="42" font-weight="800">分治：拆分、解决、合并</text><g stroke="#38e8ff" stroke-width="4" fill="none"><path d="M500 130 L300 260 L210 390"/><path d="M500 130 L300 260 L390 390"/><path d="M500 130 L700 260 L610 390"/><path d="M500 130 L700 260 L790 390"/></g><g font-family="Menlo" font-size="20" text-anchor="middle"><rect x="400" y="100" width="200" height="60" rx="16" fill="#13223a" stroke="#38e8ff"/><text x="500" y="138" fill="#fff">[8,3,5,1]</text><rect x="220" y="238" width="160" height="52" rx="14" fill="#13223a" stroke="#38e8ff"/><text x="300" y="272" fill="#fff">[8,3]</text><rect x="620" y="238" width="160" height="52" rx="14" fill="#13223a" stroke="#38e8ff"/><text x="700" y="272" fill="#fff">[5,1]</text><rect x="150" y="372" width="120" height="48" rx="12" fill="#1a2538" stroke="#ffd166"/><text x="210" y="404" fill="#fff">[8]</text><rect x="330" y="372" width="120" height="48" rx="12" fill="#1a2538" stroke="#ffd166"/><text x="390" y="404" fill="#fff">[3]</text><rect x="550" y="372" width="120" height="48" rx="12" fill="#1a2538" stroke="#ffd166"/><text x="610" y="404" fill="#fff">[5]</text><rect x="730" y="372" width="120" height="48" rx="12" fill="#1a2538" stroke="#ffd166"/><text x="790" y="404" fill="#fff">[1]</text></g><text x="500" y="505" fill="#cbd5e1" font-family="Songti SC" font-size="28" text-anchor="middle">拆到基本情况，再把有序小结果合并成大结果</text></svg>