<svg xmlns="http://www.w3.org/2000/svg" width="1280" height="720" viewBox="0 0 1280 720"><defs><linearGradient id="bg" x1="0" x2="1" y1="0" y2="1"><stop stop-color="#07111f"/><stop offset=".55" stop-color="#0f2a3a"/><stop offset="1" stop-color="#042f2e"/></linearGradient></defs><rect width="1280" height="720" fill="url(#bg)"/><circle cx="1070" cy="110" r="190" fill="#22d3ee" opacity=".12"/><circle cx="180" cy="650" r="250" fill="#34d399" opacity=".10"/><text x="80" y="105" fill="#ecfeff" font-size="42" font-family="PingFang SC, sans-serif" font-weight="800">数据结构：列表、栈、队列、树与图</text><text x="82" y="155" fill="#a7f3d0" font-size="24" font-family="PingFang SC, sans-serif">为什么同一批数据，换一种组织方式，程序效率和思路都会改变？</text><g><rect x="110" y="260" width="220" height="118" rx="28" fill="#0b1728" stroke="#38bdf8" opacity=".95"/><text x="140" y="326" fill="#e0f2fe" font-size="26" font-family="PingFang SC, sans-serif">访问位置</text><rect x="395" y="260" width="220" height="118" rx="28" fill="#0b1728" stroke="#38bdf8" opacity=".95"/><text x="425" y="326" fill="#e0f2fe" font-size="26" font-family="PingFang SC, sans-serif">插入方式</text><rect x="680" y="260" width="220" height="118" rx="28" fill="#0b1728" stroke="#38bdf8" opacity=".95"/><text x="710" y="326" fill="#e0f2fe" font-size="26" font-family="PingFang SC, sans-serif">删除规则</text><rect x="965" y="260" width="220" height="118" rx="28" fill="#0b1728" stroke="#38bdf8" opacity=".95"/><text x="995" y="326" fill="#e0f2fe" font-size="26" font-family="PingFang SC, sans-serif">关系形态</text></g><path d="M330 319 H395 M615 319 H680 M900 319 H965" stroke="#34d399" stroke-width="8" stroke-linecap="round" opacity=".85"/><rect x="165" y="500" width="950" height="92" rx="28" fill="#052e2b" stroke="#34d399" opacity=".92"/><text x="205" y="557" fill="#d1fae5" font-size="28" font-family="PingFang SC, sans-serif">真实任务 → 变量建模 → 代码解释 → 迁移应用</text></svg>