<svg xmlns="http://www.w3.org/2000/svg" viewBox="0 0 640 280" role="img" aria-label="mĶ8ĮżĻb;˛‹">
  <rect width="640" height="280" fill="#fffbeb" rx="12"/>
  <text x="320" y="32" text-anchor="middle" font-family="PingFang SC,sans-serif" font-size="18" font-weight="700" fill="#92400e">mĶ8ĮżĻb</text>
  <g font-family="PingFang SC,sans-serif" font-size="13">
    <rect x="24" y="56" width="180" height="56" rx="10" fill="#ffedd5" stroke="#fdba74"/>
    <text x="114" y="80" text-anchor="middle" fill="#9a3412" font-weight="700">Øż</text>
    <text x="114" y="100" text-anchor="middle" fill="#78350f">TŃ„ŗLv„}f</text>
    <rect x="230" y="56" width="180" height="56" rx="10" fill="#fef9c3" stroke="#fde047"/>
    <text x="320" y="80" text-anchor="middle" fill="#854d0e" font-weight="700">æż</text>
    <text x="320" y="100" text-anchor="middle" fill="#713f12">>Ų„ĶiÉ8„a®K</text>
    <rect x="436" y="56" width="180" height="56" rx="10" fill="#fee2e2" stroke="#fca5a5"/>
    <text x="526" y="80" text-anchor="middle" fill="#991b1b" font-weight="700">ķż</text>
    <text x="526" y="100" text-anchor="middle" fill="#7f1d1d">ķ4k0–K¯</text>
    <rect x="24" y="140" width="180" height="56" rx="10" fill="#fef08a" stroke="#facc15"/>
    <text x="114" y="164" text-anchor="middle" fill="#854d0e" font-weight="700">Iż</text>
    <text x="114" y="184" text-anchor="middle" fill="#713f12">*3I5o$kk</text>
    <rect x="230" y="140" width="180" height="56" rx="10" fill="#dbeafe" stroke="#93c5fd"/>
    <text x="320" y="164" text-anchor="middle" fill="#1e40af" font-weight="700">5ż</text>
    <text x="320" y="184" text-anchor="middle" fill="#1e3a8a">5`Ņ§ź5</text>
    <rect x="436" y="140" width="180" height="56" rx="10" fill="#dcfce7" stroke="#86efac"/>
    <text x="526" y="164" text-anchor="middle" fill="#166534" font-weight="700">fż</text>
    <text x="526" y="184" text-anchor="middle" fill="#14532d">ßid­}¹</text>
  </g>
  <text x="320" y="250" text-anchor="middle" font-family="PingFang SC,sans-serif" font-size="14" fill="#b45309">ŠØ„iSw	ØżMnbŲØXæż</text>
</svg>
