<svg xmlns="http://www.w3.org/2000/svg" width="1280" height="720" viewBox="0 0 1280 720">
  <defs><linearGradient id="g" x1="0" x2="1"><stop stop-color="#07111f"/><stop offset="1" stop-color="#172554"/></linearGradient></defs>
  <rect width="1280" height="720" fill="url(#g)"/>
  <circle cx="1050" cy="120" r="180" fill="#38bdf8" opacity="0.13"/>
  <circle cx="220" cy="620" r="220" fill="#a78bfa" opacity="0.12"/>
  <text x="70" y="112" fill="#f8fafc" font-size="52" font-weight="900">化学键</text>
  <text x="70" y="168" fill="#bae6fd" font-size="28">怎样从原子得失电子或共用电子判断物质中是什么化学键？</text>
  <text x="70" y="225" fill="#cbd5e1" font-size="24">角色任务：微观结构建模师 · 课标节点：chem-h-chemical-bond</text>
  
  <rect x="70" y="270" width="330" height="190" rx="24" fill="#0f172a" stroke="#38bdf8" stroke-width="4"/>
  <text x="96" y="325" fill="#38bdf8" font-size="28" font-weight="800">离子键</text>
  <text x="96" y="374" fill="#dbeafe" font-size="21">活泼金属与活泼非金属之间常通过电子转移形成阴阳离子，靠静电作</text>
  <text x="96" y="410" fill="#dbeafe" font-size="21">用结合。</text>
  <rect x="460" y="270" width="330" height="190" rx="24" fill="#0f172a" stroke="#a78bfa" stroke-width="4"/>
  <text x="486" y="325" fill="#a78bfa" font-size="28" font-weight="800">共价键</text>
  <text x="486" y="374" fill="#dbeafe" font-size="21">非金属原子之间常通过共用电子对形成共价键，可分为非极性和极性</text>
  <text x="486" y="410" fill="#dbeafe" font-size="21">共价键。</text>
  <rect x="850" y="270" width="330" height="190" rx="24" fill="#0f172a" stroke="#22c55e" stroke-width="4"/>
  <text x="876" y="325" fill="#22c55e" font-size="28" font-weight="800">结构决定性质</text>
  <text x="876" y="374" fill="#dbeafe" font-size="21">离子晶体通常熔点高，极性分子在溶解性、沸点等方面表现出不同特</text>
  <text x="876" y="410" fill="#dbeafe" font-size="21">点。</text>
  <rect x="70" y="525" width="1140" height="105" rx="24" fill="#020617" opacity="0.72" stroke="#334155"/>
  <text x="105" y="585" fill="#fbbf24" font-size="30" font-weight="800">记忆锚点</text>
  <text x="260" y="585" fill="#e0f2fe" font-size="26">金非多离子，非非多共价；同种非极性，不同看偏向。</text>
  <text x="70" y="675" fill="#64748b" font-size="18">TeachAny v7.14 · 高中化学完整模式 · AI 学伴 / TTS / 知识图谱 / Canvas 互动 / 课标挂树</text>
</svg>