<svg xmlns="http://www.w3.org/2000/svg" width="1280" height="720" viewBox="0 0 1280 720">
<defs><linearGradient id="g" x1="0" y1="0" x2="1" y2="1"><stop stop-color="#0f172a"/><stop offset="1" stop-color="#164e63"/></linearGradient><filter id="s"><feDropShadow dx="0" dy="8" stdDeviation="12" flood-color="#000" flood-opacity=".35"/></filter><marker id="arr" markerWidth="10" markerHeight="10" refX="9" refY="3" orient="auto"><path d="M0,0 L0,6 L9,3 z" fill="#7dd3fc"/></marker></defs>
<rect width="1280" height="720" fill="url(#g)"/>
<circle cx="130" cy="120" r="58" fill="#38bdf8" opacity=".18"/>
<circle cx="1080" cy="120" r="48" fill="#a78bfa" opacity=".18"/>
<circle cx="1120" cy="560" r="70" fill="#22c55e" opacity=".18"/>
<circle cx="180" cy="580" r="42" fill="#f59e0b" opacity=".18"/>
<text x="80" y="110" fill="#e0f2fe" font-size="34" font-family="PingFang SC,Arial" font-weight="700">初中化学 · 物质的性质与应用</text>
<text x="80" y="185" fill="#ffffff" font-size="58" font-family="PingFang SC,Arial" font-weight="900">金属的锈蚀与防护</text>
<rect x="110" y="270" width="205" height="92" rx="22" fill="#0b1220" stroke="#38bdf8" stroke-opacity=".45" filter="url(#s)"/>
<text x="212" y="326" text-anchor="middle" fill="#bae6fd" font-size="26" font-family="PingFang SC,Arial" font-weight="700">看见现象</text>
<path d="M 325 316 H 377" stroke="#7dd3fc" stroke-width="5" stroke-linecap="round" marker-end="url(#arr)"/>
<rect x="395" y="270" width="205" height="92" rx="22" fill="#0b1220" stroke="#38bdf8" stroke-opacity=".45" filter="url(#s)"/>
<text x="497" y="326" text-anchor="middle" fill="#bae6fd" font-size="26" font-family="PingFang SC,Arial" font-weight="700">拆开结构</text>
<path d="M 610 316 H 662" stroke="#7dd3fc" stroke-width="5" stroke-linecap="round" marker-end="url(#arr)"/>
<rect x="680" y="270" width="205" height="92" rx="22" fill="#0b1220" stroke="#38bdf8" stroke-opacity=".45" filter="url(#s)"/>
<text x="782" y="326" text-anchor="middle" fill="#bae6fd" font-size="26" font-family="PingFang SC,Arial" font-weight="700">解释本质</text>
<path d="M 895 316 H 947" stroke="#7dd3fc" stroke-width="5" stroke-linecap="round" marker-end="url(#arr)"/>
<rect x="965" y="270" width="205" height="92" rx="22" fill="#0b1220" stroke="#38bdf8" stroke-opacity=".45" filter="url(#s)"/>
<text x="1067" y="326" text-anchor="middle" fill="#bae6fd" font-size="26" font-family="PingFang SC,Arial" font-weight="700">迁移应用</text>
<rect x="90" y="423" width="1100" height="48" rx="16" fill="#ffffff" opacity=".08"/>
<text x="120" y="455" fill="#dbeafe" font-size="22" font-family="PingFang SC,Arial">• 常见金属的物理性质和化学性质。</text>
</svg>